<svg width="21" height="21" viewBox="0 0 21 21" fill="none" xmlns="http://www.w3.org/2000/svg">
<path d="M10.5044 5.37227C7.66607 5.37227 5.37665 7.66168 5.37665 10.5C5.37665 13.3384 7.66607 15.6278 10.5044 15.6278C13.3427 15.6278 15.6321 13.3384 15.6321 10.5C15.6321 7.66168 13.3427 5.37227 10.5044 5.37227ZM10.5044 13.8337C8.67019 13.8337 7.1707 12.3387 7.1707 10.5C7.1707 8.66135 8.66573 7.16631 10.5044 7.16631C12.3431 7.16631 13.8381 8.66135 13.8381 10.5C13.8381 12.3387 12.3386 13.8337 10.5044 13.8337ZM17.0379 5.16252C17.0379 5.82747 16.5024 6.35855 15.8419 6.35855C15.1769 6.35855 14.6459 5.82301 14.6459 5.16252C14.6459 4.50202 15.1814 3.96649 15.8419 3.96649C16.5024 3.96649 17.0379 4.50202 17.0379 5.16252ZM20.4341 6.3764C20.3582 4.77425 19.9923 3.35509 18.8186 2.18583C17.6493 1.01658 16.2302 0.650634 14.628 0.570304C12.9768 0.476586 8.02755 0.476586 6.37632 0.570304C4.77864 0.646172 3.35947 1.01212 2.18576 2.18137C1.01204 3.35062 0.650558 4.76979 0.570228 6.37193C0.476509 8.02317 0.476509 12.9724 0.570228 14.6236C0.646095 16.2258 1.01204 17.6449 2.18576 18.8142C3.35947 19.9834 4.77418 20.3494 6.37632 20.4297C8.02755 20.5234 12.9768 20.5234 14.628 20.4297C16.2302 20.3539 17.6493 19.9879 18.8186 18.8142C19.9878 17.6449 20.3538 16.2258 20.4341 14.6236C20.5278 12.9724 20.5278 8.02763 20.4341 6.3764ZM18.3009 16.3954C17.9528 17.2701 17.2789 17.944 16.3998 18.2965C15.0832 18.8187 11.9593 18.6982 10.5044 18.6982C9.04953 18.6982 5.92111 18.8142 4.60905 18.2965C3.73435 17.9484 3.06047 17.2745 2.70791 16.3954C2.18576 15.0788 2.30625 11.9549 2.30625 10.5C2.30625 9.04515 2.19022 5.91673 2.70791 4.60467C3.056 3.72996 3.72988 3.05608 4.60905 2.70352C5.92558 2.18137 9.04953 2.30187 10.5044 2.30187C11.9593 2.30187 15.0877 2.18583 16.3998 2.70352C17.2745 3.05162 17.9483 3.7255 18.3009 4.60467C18.823 5.92119 18.7026 9.04515 18.7026 10.5C18.7026 11.9549 18.823 15.0833 18.3009 16.3954Z" fill="white"/>
</svg>
